Coordinates
version=1
nRows=4
nColumns=63
inDegrees=yes

Units are S.I. units (second, meters, Newtons, ...)
If the header above contains a line with 'inDegrees', this indicates whether rotational values are in degrees (yes) or radians (no).

endheader
time	pelvis_tilt	pelvis_list	pelvis_rotation	pelvis_tx	pelvis_ty	pelvis_tz	hip_flexion_r	hip_adduction_r	hip_rotation_r	knee_angle_r	knee_angle_r_beta	ankle_angle_r	subtalar_angle_r	mtp_angle_r	hip_flexion_l	hip_adduction_l	hip_rotation_l	knee_angle_l	knee_angle_l_beta	ankle_angle_l	subtalar_angle_l	mtp_angle_l	L5_S1_Flex_Ext	L5_S1_Lat_Bending	L5_S1_axial_rotation	L4_L5_Flex_Ext	L4_L5_Lat_Bending	L4_L5_axial_rotation	L3_L4_Flex_Ext	L3_L4_Lat_Bending	L3_L4_axial_rotation	L2_L3_Flex_Ext	L2_L3_Lat_Bending	L2_L3_axial_rotation	L1_L2_Flex_Ext	L1_L2_Lat_Bending	L1_L2_axial_rotation	L1_T12_Flex_Ext	L1_T12_Lat_Bending	L1_T12_axial_rotation	Abs_r3	Abs_r2	Abs_r1	Abs_t1	Abs_t2	neck_flexion	neck_bending	neck_rotation	arm_flex_r	arm_add_r	arm_rot_r	elbow_flex_r	pro_sup_r	wrist_flex_r	wrist_dev_r	arm_flex_l	arm_add_l	arm_rot_l	elbow_flex_l	pro_sup_l	wrist_flex_l	wrist_dev_l
      4.11700000	    -52.23451205	     -2.27366007	     -1.74068382	     -0.35121700	      0.98316229	      0.03071847	    116.56668735	     -7.96208185	     -1.76587582	    114.24070615	      1.99387646	     -4.37336550	    -12.26343224	      0.00000000	     97.74274370	     -6.25478839	      1.29218088	     49.35799414	      0.86145951	     -8.12990757	     -0.17899734	      0.00000000	     -0.08956238	      0.31294419	      0.23801856	     -0.16632629	      0.41621577	      0.25289472	     -0.14714203	      0.76089250	      0.25289472	     -0.10236084	      0.76089250	      0.20826624	     -0.08316762	      0.63815579	      0.19339008	     -0.05117594	      0.48475055	      0.17851392	     -0.63973511	      3.54008724	      1.32378782	      0.00000000	      0.00000000	      0.00000000	      0.00000000	      0.00000000	     68.59287907	     -8.16116203	      2.15815982	     41.20384915	     49.16643352	      0.00000000	      4.99998316	     66.96996602	     -7.22001223	     -2.56151089	     42.06603402	     53.82987226	      0.00000000	      4.99998316
      4.12500000	    -52.20887300	     -2.57099790	     -2.12077487	     -0.35067815	      0.98323586	      0.03077286	    117.87959901	     -7.85618546	     -2.03506327	    115.29669732	      2.01230698	     -3.74827214	    -12.11595838	      0.00000000	     96.39011892	     -6.64491378	      1.48844800	     48.12524120	      0.83994391	     -8.47992792	     -0.06538694	      0.00000000	     -0.08929997	      0.37125832	      0.30491551	     -0.16583898	      0.49377357	      0.32397273	     -0.14671092	      0.90267749	      0.32397273	     -0.10206094	      0.90267749	      0.26680107	     -0.08292395	      0.75706997	      0.24774385	     -0.05102600	      0.57507914	      0.22868663	     -0.63786076	      4.19974842	      1.69584860	      0.00000000	      0.00000000	      0.00000000	      0.00000000	      0.00000000	     68.68216371	     -8.19284202	      2.31876862	     41.14863914	     49.17760659	      0.00000000	      4.99998342	     66.72764552	     -7.24091831	     -2.66994147	     42.06452659	     53.78440783	      0.00000000	      4.99998342
      4.13300000	    -52.18093057	     -2.84004905	     -2.31603937	     -0.35015392	      0.98342107	      0.03062684	    119.15727867	     -7.91118542	     -2.28153107	    116.21401503	      2.02831720	     -3.00184093	    -12.10909684	      0.00000000	     95.03921546	     -6.84822639	      1.67140643	     46.92478579	      0.81899201	     -8.85621005	      0.05810824	      0.00000000	     -0.08902346	      0.42424361	      0.33430980	     -0.16532547	      0.56424400	      0.35520416	     -0.14625664	      1.03150591	      0.35520416	     -0.10174491	      1.03150591	      0.29252107	     -0.08266718	      0.86511757	      0.27162671	     -0.05086800	      0.65715335	      0.25073235	     -0.63588567	      4.79912857	      1.85933079	      0.00000000	      0.00000000	      0.00000000	      0.00000000	      0.00000000	     68.81701585	     -8.24544798	      2.58536359	     41.02509092	     49.21308656	      0.00000000	      4.99998362	     66.47813644	     -7.27076133	     -2.83239273	     42.00516489	     53.75173599	      0.00000000	      4.99998362
      4.14200000	    -52.13496600	     -3.21861550	     -2.24881407	     -0.34959530	      0.98356259	      0.02999939	    120.35866531	     -8.27363773	     -2.42475630	    117.07661179	      2.04337235	     -1.69955865	    -11.42463172	      0.00000000	     93.79764159	     -6.75716077	      2.05172684	     45.93737946	      0.80175852	     -9.42079723	      0.05038075	      0.00000000	     -0.08875663	      0.49082945	      0.30932595	     -0.16482994	      0.65280317	      0.32865882	     -0.14581827	      1.19340273	      0.32865882	     -0.10143995	      1.19340273	      0.27066020	     -0.08241941	      1.00089942	      0.25132733	     -0.05071554	      0.76029482	      0.23199446	     -0.63397973	      5.55236095	      1.72037811	      0.00000000	      0.00000000	      0.00000000	      0.00000000	      0.00000000	     69.10235665	     -8.49244658	      3.64060081	     40.68070042	     49.37403735	      0.00000000	      4.99998429	     66.19371440	     -7.20091653	     -3.39125136	     41.96253651	     53.66539686	      0.00000000	      4.99998429
